{
	"asset":{
		"generator":"Khronos glTF Blender I/O v3.6.27",
		"version":"2.0"
	},
	"extensionsUsed":[
		"KHR_materials_emissive_strength"
	],
	"scene":0,
	"scenes":[
		{
			"name":"Scene",
			"nodes":[
				7
			]
		}
	],
	"nodes":[
		{
			"name":"AttackPointFive",
			"translation":[
				0,
				-0.2124866545200348,
				0
			]
		},
		{
			"name":"AttackPointFour",
			"translation":[
				0,
				-0.14908736944198608,
				0
			]
		},
		{
			"name":"AttackPointOne",
			"translation":[
				0,
				0.06277438998222351,
				0
			]
		},
		{
			"name":"AttackPointSeven",
			"translation":[
				0,
				-0.3150031864643097,
				0
			]
		},
		{
			"name":"AttackPointSix",
			"translation":[
				0,
				-0.2675427496433258,
				0
			]
		},
		{
			"name":"AttackPointThree",
			"translation":[
				0,
				-0.08969458937644958,
				0
			]
		},
		{
			"name":"AttackPointTwo",
			"translation":[
				0,
				-0.013750523328781128,
				0
			]
		},
		{
			"children":[
				0,
				1,
				2,
				3,
				4,
				5,
				6
			],
			"mesh":0,
			"name":"Scopion",
			"scale":[
				0.4751169681549072,
				0.7126754522323608,
				0.18552440404891968
			],
			"translation":[
				0,
				0.25544002652168274,
				0
			]
		}
	],
	"animations":[
		{
			"channels":[
				{
					"sampler":0,
					"target":{
						"node":7,
						"path":"translation"
					}
				},
				{
					"sampler":1,
					"target":{
						"node":7,
						"path":"rotation"
					}
				},
				{
					"sampler":2,
					"target":{
						"node":7,
						"path":"scale"
					}
				}
			],
			"name":"mantis",
			"samplers":[
				{
					"input":4,
					"interpolation":"LINEAR",
					"output":5
				},
				{
					"input":6,
					"interpolation":"STEP",
					"output":7
				},
				{
					"input":4,
					"interpolation":"LINEAR",
					"output":8
				}
			]
		}
	],
	"materials":[
		{
			"doubleSided":true,
			"emissiveFactor":[
				1,
				1,
				1
			],
			"emissiveTexture":{
				"index":0
			},
			"extensions":{
				"KHR_materials_emissive_strength":{
					"emissiveStrength":20
				}
			},
			"name":"Material",
			"pbrMetallicRoughness":{
				"baseColorTexture":{
					"index":1
				},
				"metallicFactor":0
			}
		}
	],
	"meshes":[
		{
			"name":"Cube",
			"primitives":[
				{
					"attributes":{
						"POSITION":0,
						"NORMAL":1,
						"TEXCOORD_0":2
					},
					"indices":3,
					"material":0
				}
			]
		}
	],
	"textures":[
		{
			"sampler":0,
			"source":0
		},
		{
			"sampler":0,
			"source":0
		}
	],
	"images":[
		{
			"mimeType":"image/png",
			"name":"scopion",
			"uri":"scopion.png"
		}
	],
	"accessors":[
		{
			"bufferView":0,
			"componentType":5126,
			"count":115,
			"max":[
				0.10000000149011612,
				0.15272104740142822,
				0.1599999964237213
			],
			"min":[
				-0.1014091819524765,
				-0.35438427329063416,
				-0.1599999964237213
			],
			"type":"VEC3"
		},
		{
			"bufferView":1,
			"componentType":5126,
			"count":115,
			"type":"VEC3"
		},
		{
			"bufferView":2,
			"componentType":5126,
			"count":115,
			"type":"VEC2"
		},
		{
			"bufferView":3,
			"componentType":5123,
			"count":189,
			"type":"SCALAR"
		},
		{
			"bufferView":4,
			"componentType":5126,
			"count":31,
			"max":[
				0.6666666666666666
			],
			"min":[
				0.16666666666666666
			],
			"type":"SCALAR"
		},
		{
			"bufferView":5,
			"componentType":5126,
			"count":31,
			"type":"VEC3"
		},
		{
			"bufferView":6,
			"componentType":5126,
			"count":2,
			"max":[
				0.6666666666666666
			],
			"min":[
				0.16666666666666666
			],
			"type":"SCALAR"
		},
		{
			"bufferView":7,
			"componentType":5126,
			"count":2,
			"type":"VEC4"
		},
		{
			"bufferView":8,
			"componentType":5126,
			"count":31,
			"type":"VEC3"
		}
	],
	"bufferViews":[
		{
			"buffer":0,
			"byteLength":1380,
			"byteOffset":0,
			"target":34962
		},
		{
			"buffer":0,
			"byteLength":1380,
			"byteOffset":1380,
			"target":34962
		},
		{
			"buffer":0,
			"byteLength":920,
			"byteOffset":2760,
			"target":34962
		},
		{
			"buffer":0,
			"byteLength":378,
			"byteOffset":3680,
			"target":34963
		},
		{
			"buffer":0,
			"byteLength":124,
			"byteOffset":4060
		},
		{
			"buffer":0,
			"byteLength":372,
			"byteOffset":4184
		},
		{
			"buffer":0,
			"byteLength":8,
			"byteOffset":4556
		},
		{
			"buffer":0,
			"byteLength":32,
			"byteOffset":4564
		},
		{
			"buffer":0,
			"byteLength":372,
			"byteOffset":4596
		}
	],
	"samplers":[
		{
			"magFilter":9729,
			"minFilter":9987
		}
	],
	"buffers":[
		{
			"byteLength":4968,
			"uri":"mantis.bin"
		}
	]
}
