{
	"asset":{
		"generator":"Khronos glTF Blender I/O v3.6.27",
		"version":"2.0"
	},
	"scene":0,
	"scenes":[
		{
			"name":"Scene",
			"nodes":[
				22
			]
		}
	],
	"nodes":[
		{
			"name":"bldg10Point",
			"translation":[
				-0.30000001192092896,
				0,
				0
			]
		},
		{
			"name":"bldg11Point",
			"translation":[
				0.6662730574607849,
				0,
				0.9609286189079285
			]
		},
		{
			"name":"bldg12Point",
			"translation":[
				0.15002001821994781,
				0,
				0.9609283804893494
			]
		},
		{
			"name":"bldg13Point",
			"translation":[
				-0.15002001821994781,
				0,
				0.9609283804893494
			]
		},
		{
			"name":"bldg14Point",
			"translation":[
				-0.6662730574607849,
				0,
				0.9609283804893494
			]
		},
		{
			"name":"bldg15Point.",
			"translation":[
				0.30000001192092896,
				0,
				0.36372318863868713
			]
		},
		{
			"name":"bldg16Point",
			"translation":[
				-0.30000001192092896,
				0,
				0.36372318863868713
			]
		},
		{
			"name":"bldg17Point",
			"translation":[
				0.30000001192092896,
				0,
				-0.4130305051803589
			]
		},
		{
			"name":"bldg18Point",
			"translation":[
				-0.30000001192092896,
				0,
				-0.4130305051803589
			]
		},
		{
			"name":"bldg19Point",
			"translation":[
				0.6548106670379639,
				0.0053475904278457165,
				-0.9370840787887573
			]
		},
		{
			"name":"bldg1Point",
			"translation":[
				0.6662730574607849,
				0,
				0.7028560638427734
			]
		},
		{
			"name":"bldg20Point",
			"translation":[
				0.13855762779712677,
				0.0053475904278457165,
				-0.9370840787887573
			]
		},
		{
			"name":"bldg21Point",
			"translation":[
				-0.16148239374160767,
				0.0053475904278457165,
				-0.9370840787887573
			]
		},
		{
			"name":"bldg22Point",
			"translation":[
				-0.677735447883606,
				0.0053475904278457165,
				-0.9370840787887573
			]
		},
		{
			"name":"bldg2Point",
			"translation":[
				0.15002001821994781,
				0,
				0.7028558254241943
			]
		},
		{
			"name":"bldg3Point",
			"translation":[
				-0.15002001821994781,
				0,
				0.7028558254241943
			]
		},
		{
			"name":"bldg4Point",
			"translation":[
				-0.6662730574607849,
				0,
				0.7028558254241943
			]
		},
		{
			"name":"bldg5Point",
			"translation":[
				0.6662730574607849,
				0,
				-0.6874857544898987
			]
		},
		{
			"name":"bldg6Point",
			"translation":[
				0.15002001821994781,
				0,
				-0.6874857544898987
			]
		},
		{
			"name":"bldg7Point",
			"translation":[
				-0.15002001821994781,
				0,
				-0.6874857544898987
			]
		},
		{
			"name":"bldg8Point",
			"translation":[
				-0.6662730574607849,
				0,
				-0.6874857544898987
			]
		},
		{
			"name":"bldg9Point",
			"translation":[
				0.30000001192092896,
				0,
				0
			]
		},
		{
			"children":[
				0,
				1,
				2,
				3,
				4,
				5,
				6,
				7,
				8,
				9,
				10,
				11,
				12,
				13,
				14,
				15,
				16,
				17,
				18,
				19,
				20,
				21
			],
			"mesh":0,
			"name":"\u5e73\u9762",
			"scale":[
				250,
				100,
				250
			]
		}
	],
	"materials":[
		{
			"doubleSided":true,
			"name":"\u30de\u30c6\u30ea\u30a2\u30eb",
			"pbrMetallicRoughness":{
				"baseColorTexture":{
					"index":0
				},
				"metallicFactor":0,
				"roughnessFactor":0.5
			}
		}
	],
	"meshes":[
		{
			"name":"\u5e73\u9762",
			"primitives":[
				{
					"attributes":{
						"POSITION":0,
						"NORMAL":1,
						"TEXCOORD_0":2
					},
					"indices":3,
					"material":0
				}
			]
		}
	],
	"textures":[
		{
			"sampler":0,
			"source":0
		}
	],
	"images":[
		{
			"mimeType":"image/jpeg",
			"name":"ang1",
			"uri":"ang1.jpg"
		}
	],
	"accessors":[
		{
			"bufferView":0,
			"componentType":5126,
			"count":4,
			"max":[
				1,
				0,
				1
			],
			"min":[
				-1,
				0,
				-1
			],
			"type":"VEC3"
		},
		{
			"bufferView":1,
			"componentType":5126,
			"count":4,
			"type":"VEC3"
		},
		{
			"bufferView":2,
			"componentType":5126,
			"count":4,
			"type":"VEC2"
		},
		{
			"bufferView":3,
			"componentType":5123,
			"count":6,
			"type":"SCALAR"
		}
	],
	"bufferViews":[
		{
			"buffer":0,
			"byteLength":48,
			"byteOffset":0,
			"target":34962
		},
		{
			"buffer":0,
			"byteLength":48,
			"byteOffset":48,
			"target":34962
		},
		{
			"buffer":0,
			"byteLength":32,
			"byteOffset":96,
			"target":34962
		},
		{
			"buffer":0,
			"byteLength":12,
			"byteOffset":128,
			"target":34963
		}
	],
	"samplers":[
		{
			"magFilter":9729,
			"minFilter":9987
		}
	],
	"buffers":[
		{
			"byteLength":140,
			"uri":"ground.bin"
		}
	]
}
