{
	"asset":{
		"generator":"Khronos glTF Blender I/O v3.6.27",
		"version":"2.0"
	},
	"scene":0,
	"scenes":[
		{
			"name":"Scene",
			"nodes":[
				0,
				1,
				2,
				3,
				4,
				5,
				6,
				7,
				8,
				9,
				10
			]
		}
	],
	"nodes":[
		{
			"mesh":0,
			"name":"Apartment_House_Base",
			"rotation":[
				0,
				-1,
				0,
				1.6292068494294654e-07
			]
		},
		{
			"mesh":1,
			"name":"Apartment_House_Enterence",
			"rotation":[
				0,
				-1,
				0,
				1.6292068494294654e-07
			],
			"translation":[
				4,
				0,
				0
			]
		},
		{
			"mesh":2,
			"name":"Apartment_House_Roof",
			"rotation":[
				0,
				-1,
				0,
				1.6292068494294654e-07
			],
			"translation":[
				0,
				9.480175018310547,
				0
			]
		},
		{
			"mesh":3,
			"name":"Apartment_House_Room.001",
			"rotation":[
				0,
				-1,
				0,
				1.6292068494294654e-07
			],
			"translation":[
				0,
				0.5,
				0
			]
		},
		{
			"mesh":4,
			"name":"Apartment_House_Room.002",
			"rotation":[
				0,
				-1,
				0,
				1.6292068494294654e-07
			],
			"translation":[
				-4,
				0.5,
				0
			]
		},
		{
			"mesh":5,
			"name":"Apartment_House_Room.003",
			"rotation":[
				0,
				-1,
				0,
				1.6292068494294654e-07
			],
			"translation":[
				0,
				3.5,
				0
			]
		},
		{
			"mesh":6,
			"name":"Apartment_House_Room.004",
			"rotation":[
				0,
				-1,
				0,
				1.6292068494294654e-07
			],
			"translation":[
				4,
				3.5,
				0
			]
		},
		{
			"mesh":7,
			"name":"Apartment_House_Room.005",
			"rotation":[
				0,
				-1,
				0,
				1.6292068494294654e-07
			],
			"translation":[
				-4,
				3.5,
				0
			]
		},
		{
			"mesh":8,
			"name":"Apartment_House_Room.006",
			"rotation":[
				0,
				-1,
				0,
				1.6292068494294654e-07
			],
			"translation":[
				0,
				6.5305352210998535,
				0
			]
		},
		{
			"mesh":9,
			"name":"Apartment_House_Room.007",
			"rotation":[
				0,
				-1,
				0,
				1.6292068494294654e-07
			],
			"translation":[
				4,
				6.5305352210998535,
				0
			]
		},
		{
			"mesh":10,
			"name":"Apartment_House_Room.008",
			"rotation":[
				0,
				-1,
				0,
				1.6292068494294654e-07
			],
			"translation":[
				-4,
				6.472877025604248,
				0
			]
		}
	],
	"materials":[
		{
			"doubleSided":true,
			"name":"Apartment_Building",
			"pbrMetallicRoughness":{
				"baseColorTexture":{
					"index":0
				},
				"metallicFactor":0,
				"roughnessFactor":0.5
			}
		},
		{
			"doubleSided":true,
			"name":"Apartment_Building.001",
			"pbrMetallicRoughness":{
				"baseColorTexture":{
					"index":1
				},
				"metallicFactor":0,
				"roughnessFactor":0.5
			}
		}
	],
	"meshes":[
		{
			"name":"Apartment_House_Base_Cube.071",
			"primitives":[
				{
					"attributes":{
						"POSITION":0,
						"NORMAL":1,
						"TEXCOORD_0":2
					},
					"indices":3,
					"material":0
				}
			]
		},
		{
			"name":"Apartment_House_Enterence_Cube.008",
			"primitives":[
				{
					"attributes":{
						"POSITION":4,
						"NORMAL":5,
						"TEXCOORD_0":6
					},
					"indices":7,
					"material":0
				}
			]
		},
		{
			"name":"Apartment_House_Roof_Cube.075",
			"primitives":[
				{
					"attributes":{
						"POSITION":8,
						"NORMAL":9,
						"TEXCOORD_0":10
					},
					"indices":11,
					"material":0
				}
			]
		},
		{
			"name":"Apartment_House_Module_0_Cube.001",
			"primitives":[
				{
					"attributes":{
						"POSITION":12,
						"NORMAL":13,
						"TEXCOORD_0":14
					},
					"indices":15,
					"material":1
				}
			]
		},
		{
			"name":"Apartment_House_Module_0_Cube.002",
			"primitives":[
				{
					"attributes":{
						"POSITION":16,
						"NORMAL":17,
						"TEXCOORD_0":18
					},
					"indices":15,
					"material":1
				}
			]
		},
		{
			"name":"Apartment_House_Module_0_Cube.003",
			"primitives":[
				{
					"attributes":{
						"POSITION":19,
						"NORMAL":20,
						"TEXCOORD_0":21
					},
					"indices":15,
					"material":1
				}
			]
		},
		{
			"name":"Apartment_House_Module_0_Cube.005",
			"primitives":[
				{
					"attributes":{
						"POSITION":22,
						"NORMAL":23,
						"TEXCOORD_0":24
					},
					"indices":15,
					"material":1
				}
			]
		},
		{
			"name":"Apartment_House_Module_0_Cube.006",
			"primitives":[
				{
					"attributes":{
						"POSITION":25,
						"NORMAL":26,
						"TEXCOORD_0":27
					},
					"indices":15,
					"material":1
				}
			]
		},
		{
			"name":"Apartment_House_Module_0_Cube.004",
			"primitives":[
				{
					"attributes":{
						"POSITION":28,
						"NORMAL":29,
						"TEXCOORD_0":30
					},
					"indices":15,
					"material":1
				}
			]
		},
		{
			"name":"Apartment_House_Module_0_Cube.007",
			"primitives":[
				{
					"attributes":{
						"POSITION":31,
						"NORMAL":32,
						"TEXCOORD_0":33
					},
					"indices":15,
					"material":1
				}
			]
		},
		{
			"name":"Apartment_House_Module_0_Cube.008",
			"primitives":[
				{
					"attributes":{
						"POSITION":34,
						"NORMAL":35,
						"TEXCOORD_0":36
					},
					"indices":15,
					"material":1
				}
			]
		}
	],
	"textures":[
		{
			"sampler":0,
			"source":0
		},
		{
			"sampler":0,
			"source":0
		}
	],
	"images":[
		{
			"mimeType":"image/png",
			"name":"Apartment_Building_Diffuse_Texture",
			"uri":"Apartment_Building_Diffuse_Texture.png"
		}
	],
	"accessors":[
		{
			"bufferView":0,
			"componentType":5126,
			"count":64,
			"max":[
				5.999999046325684,
				0.5000005960464478,
				4.500000953674316
			],
			"min":[
				-6.25,
				-7.331432243518066e-07,
				-4.500000953674316
			],
			"type":"VEC3"
		},
		{
			"bufferView":1,
			"componentType":5126,
			"count":64,
			"type":"VEC3"
		},
		{
			"bufferView":2,
			"componentType":5126,
			"count":64,
			"type":"VEC2"
		},
		{
			"bufferView":3,
			"componentType":5123,
			"count":132,
			"type":"SCALAR"
		},
		{
			"bufferView":4,
			"componentType":5126,
			"count":806,
			"max":[
				2.000001907348633,
				3.5000011920928955,
				4.500002384185791
			],
			"min":[
				-1.999999761581421,
				4.172321723672212e-07,
				-4.500000953674316
			],
			"type":"VEC3"
		},
		{
			"bufferView":5,
			"componentType":5126,
			"count":806,
			"type":"VEC3"
		},
		{
			"bufferView":6,
			"componentType":5126,
			"count":806,
			"type":"VEC2"
		},
		{
			"bufferView":7,
			"componentType":5123,
			"count":2016,
			"type":"SCALAR"
		},
		{
			"bufferView":8,
			"componentType":5126,
			"count":184,
			"max":[
				5.999999523162842,
				3,
				4.5
			],
			"min":[
				-6,
				-8.270144462585449e-07,
				-4.5
			],
			"type":"VEC3"
		},
		{
			"bufferView":9,
			"componentType":5126,
			"count":184,
			"type":"VEC3"
		},
		{
			"bufferView":10,
			"componentType":5126,
			"count":184,
			"type":"VEC2"
		},
		{
			"bufferView":11,
			"componentType":5123,
			"count":384,
			"type":"SCALAR"
		},
		{
			"bufferView":12,
			"componentType":5126,
			"count":254,
			"max":[
				2.000014305114746,
				3.0000016689300537,
				4.500000953674316
			],
			"min":[
				-2.000020980834961,
				-2.8673366614384577e-06,
				-4.5
			],
			"type":"VEC3"
		},
		{
			"bufferView":13,
			"componentType":5126,
			"count":254,
			"type":"VEC3"
		},
		{
			"bufferView":14,
			"componentType":5126,
			"count":254,
			"type":"VEC2"
		},
		{
			"bufferView":15,
			"componentType":5123,
			"count":504,
			"type":"SCALAR"
		},
		{
			"bufferView":16,
			"componentType":5126,
			"count":254,
			"max":[
				2.000014305114746,
				3.0000016689300537,
				4.500000953674316
			],
			"min":[
				-2.000020980834961,
				-2.8673366614384577e-06,
				-4.5
			],
			"type":"VEC3"
		},
		{
			"bufferView":17,
			"componentType":5126,
			"count":254,
			"type":"VEC3"
		},
		{
			"bufferView":18,
			"componentType":5126,
			"count":254,
			"type":"VEC2"
		},
		{
			"bufferView":19,
			"componentType":5126,
			"count":254,
			"max":[
				2.000014305114746,
				3.0000016689300537,
				4.500000953674316
			],
			"min":[
				-2.000020980834961,
				-2.8673366614384577e-06,
				-4.5
			],
			"type":"VEC3"
		},
		{
			"bufferView":20,
			"componentType":5126,
			"count":254,
			"type":"VEC3"
		},
		{
			"bufferView":21,
			"componentType":5126,
			"count":254,
			"type":"VEC2"
		},
		{
			"bufferView":22,
			"componentType":5126,
			"count":254,
			"max":[
				2.000014305114746,
				3.0000016689300537,
				4.500000953674316
			],
			"min":[
				-2.000020980834961,
				-2.8673366614384577e-06,
				-4.5
			],
			"type":"VEC3"
		},
		{
			"bufferView":23,
			"componentType":5126,
			"count":254,
			"type":"VEC3"
		},
		{
			"bufferView":24,
			"componentType":5126,
			"count":254,
			"type":"VEC2"
		},
		{
			"bufferView":25,
			"componentType":5126,
			"count":254,
			"max":[
				2.000014305114746,
				3.0000016689300537,
				4.500000953674316
			],
			"min":[
				-2.000020980834961,
				-2.8673366614384577e-06,
				-4.5
			],
			"type":"VEC3"
		},
		{
			"bufferView":26,
			"componentType":5126,
			"count":254,
			"type":"VEC3"
		},
		{
			"bufferView":27,
			"componentType":5126,
			"count":254,
			"type":"VEC2"
		},
		{
			"bufferView":28,
			"componentType":5126,
			"count":254,
			"max":[
				2.000014305114746,
				3.0000016689300537,
				4.500000953674316
			],
			"min":[
				-2.000020980834961,
				-2.8673366614384577e-06,
				-4.5
			],
			"type":"VEC3"
		},
		{
			"bufferView":29,
			"componentType":5126,
			"count":254,
			"type":"VEC3"
		},
		{
			"bufferView":30,
			"componentType":5126,
			"count":254,
			"type":"VEC2"
		},
		{
			"bufferView":31,
			"componentType":5126,
			"count":254,
			"max":[
				2.000014305114746,
				3.0000016689300537,
				4.500000953674316
			],
			"min":[
				-2.000020980834961,
				-2.8673366614384577e-06,
				-4.5
			],
			"type":"VEC3"
		},
		{
			"bufferView":32,
			"componentType":5126,
			"count":254,
			"type":"VEC3"
		},
		{
			"bufferView":33,
			"componentType":5126,
			"count":254,
			"type":"VEC2"
		},
		{
			"bufferView":34,
			"componentType":5126,
			"count":254,
			"max":[
				2.000014305114746,
				3.0000016689300537,
				4.500000953674316
			],
			"min":[
				-2.000020980834961,
				-2.8673366614384577e-06,
				-4.5
			],
			"type":"VEC3"
		},
		{
			"bufferView":35,
			"componentType":5126,
			"count":254,
			"type":"VEC3"
		},
		{
			"bufferView":36,
			"componentType":5126,
			"count":254,
			"type":"VEC2"
		}
	],
	"bufferViews":[
		{
			"buffer":0,
			"byteLength":768,
			"byteOffset":0,
			"target":34962
		},
		{
			"buffer":0,
			"byteLength":768,
			"byteOffset":768,
			"target":34962
		},
		{
			"buffer":0,
			"byteLength":512,
			"byteOffset":1536,
			"target":34962
		},
		{
			"buffer":0,
			"byteLength":264,
			"byteOffset":2048,
			"target":34963
		},
		{
			"buffer":0,
			"byteLength":9672,
			"byteOffset":2312,
			"target":34962
		},
		{
			"buffer":0,
			"byteLength":9672,
			"byteOffset":11984,
			"target":34962
		},
		{
			"buffer":0,
			"byteLength":6448,
			"byteOffset":21656,
			"target":34962
		},
		{
			"buffer":0,
			"byteLength":4032,
			"byteOffset":28104,
			"target":34963
		},
		{
			"buffer":0,
			"byteLength":2208,
			"byteOffset":32136,
			"target":34962
		},
		{
			"buffer":0,
			"byteLength":2208,
			"byteOffset":34344,
			"target":34962
		},
		{
			"buffer":0,
			"byteLength":1472,
			"byteOffset":36552,
			"target":34962
		},
		{
			"buffer":0,
			"byteLength":768,
			"byteOffset":38024,
			"target":34963
		},
		{
			"buffer":0,
			"byteLength":3048,
			"byteOffset":38792,
			"target":34962
		},
		{
			"buffer":0,
			"byteLength":3048,
			"byteOffset":41840,
			"target":34962
		},
		{
			"buffer":0,
			"byteLength":2032,
			"byteOffset":44888,
			"target":34962
		},
		{
			"buffer":0,
			"byteLength":1008,
			"byteOffset":46920,
			"target":34963
		},
		{
			"buffer":0,
			"byteLength":3048,
			"byteOffset":47928,
			"target":34962
		},
		{
			"buffer":0,
			"byteLength":3048,
			"byteOffset":50976,
			"target":34962
		},
		{
			"buffer":0,
			"byteLength":2032,
			"byteOffset":54024,
			"target":34962
		},
		{
			"buffer":0,
			"byteLength":3048,
			"byteOffset":56056,
			"target":34962
		},
		{
			"buffer":0,
			"byteLength":3048,
			"byteOffset":59104,
			"target":34962
		},
		{
			"buffer":0,
			"byteLength":2032,
			"byteOffset":62152,
			"target":34962
		},
		{
			"buffer":0,
			"byteLength":3048,
			"byteOffset":64184,
			"target":34962
		},
		{
			"buffer":0,
			"byteLength":3048,
			"byteOffset":67232,
			"target":34962
		},
		{
			"buffer":0,
			"byteLength":2032,
			"byteOffset":70280,
			"target":34962
		},
		{
			"buffer":0,
			"byteLength":3048,
			"byteOffset":72312,
			"target":34962
		},
		{
			"buffer":0,
			"byteLength":3048,
			"byteOffset":75360,
			"target":34962
		},
		{
			"buffer":0,
			"byteLength":2032,
			"byteOffset":78408,
			"target":34962
		},
		{
			"buffer":0,
			"byteLength":3048,
			"byteOffset":80440,
			"target":34962
		},
		{
			"buffer":0,
			"byteLength":3048,
			"byteOffset":83488,
			"target":34962
		},
		{
			"buffer":0,
			"byteLength":2032,
			"byteOffset":86536,
			"target":34962
		},
		{
			"buffer":0,
			"byteLength":3048,
			"byteOffset":88568,
			"target":34962
		},
		{
			"buffer":0,
			"byteLength":3048,
			"byteOffset":91616,
			"target":34962
		},
		{
			"buffer":0,
			"byteLength":2032,
			"byteOffset":94664,
			"target":34962
		},
		{
			"buffer":0,
			"byteLength":3048,
			"byteOffset":96696,
			"target":34962
		},
		{
			"buffer":0,
			"byteLength":3048,
			"byteOffset":99744,
			"target":34962
		},
		{
			"buffer":0,
			"byteLength":2032,
			"byteOffset":102792,
			"target":34962
		}
	],
	"samplers":[
		{
			"magFilter":9729,
			"minFilter":9987
		}
	],
	"buffers":[
		{
			"byteLength":104824,
			"uri":"condominium_Three.bin"
		}
	]
}
