{
	"asset":{
		"generator":"Khronos glTF Blender I/O v3.6.27",
		"version":"2.0"
	},
	"scene":0,
	"scenes":[
		{
			"name":"Scene",
			"nodes":[
				0
			]
		}
	],
	"nodes":[
		{
			"mesh":0,
			"name":"example house 01",
			"rotation":[
				1.0379223567724694e-05,
				0,
				0,
				1
			],
			"translation":[
				0,
				0,
				68.8739013671875
			]
		}
	],
	"materials":[
		{
			"doubleSided":true,
			"name":"\u30de\u30c6\u30ea\u30a2\u30eb",
			"pbrMetallicRoughness":{
				"baseColorFactor":[
					0.003309891326352954,
					0.0026673271786421537,
					0.05582120642066002,
					1
				],
				"metallicFactor":0,
				"roughnessFactor":0.5
			}
		},
		{
			"doubleSided":true,
			"name":"\u30de\u30c6\u30ea\u30a2\u30eb.001",
			"pbrMetallicRoughness":{
				"baseColorFactor":[
					0.41885340213775635,
					0.009074786677956581,
					0.013058743439614773,
					1
				],
				"metallicFactor":0,
				"roughnessFactor":0.5
			}
		},
		{
			"doubleSided":true,
			"name":"\u30de\u30c6\u30ea\u30a2\u30eb.002",
			"pbrMetallicRoughness":{
				"baseColorFactor":[
					0.5287818312644958,
					0.5287818312644958,
					0.5287818312644958,
					1
				],
				"metallicFactor":0,
				"roughnessFactor":0.5
			}
		},
		{
			"doubleSided":true,
			"name":"\u30de\u30c6\u30ea\u30a2\u30eb.003",
			"pbrMetallicRoughness":{
				"baseColorFactor":[
					0.0756402537226677,
					0.0756402537226677,
					0.0756402537226677,
					1
				],
				"metallicFactor":0,
				"roughnessFactor":0.5
			}
		},
		{
			"doubleSided":true,
			"name":"\u30de\u30c6\u30ea\u30a2\u30eb.004",
			"pbrMetallicRoughness":{
				"baseColorFactor":[
					0.18325917422771454,
					0.00772586464881897,
					0.009420683607459068,
					1
				],
				"metallicFactor":0,
				"roughnessFactor":0.5
			}
		},
		{
			"doubleSided":true,
			"name":"\u30de\u30c6\u30ea\u30a2\u30eb.005",
			"pbrMetallicRoughness":{
				"baseColorFactor":[
					0.02079012803733349,
					0.02079012803733349,
					0.02079012803733349,
					1
				],
				"metallicFactor":0,
				"roughnessFactor":0.5
			}
		},
		{
			"doubleSided":true,
			"name":"\u30de\u30c6\u30ea\u30a2\u30eb.006",
			"pbrMetallicRoughness":{
				"metallicFactor":0,
				"roughnessFactor":0.5
			}
		},
		{
			"doubleSided":true,
			"name":"\u30de\u30c6\u30ea\u30a2\u30eb.007",
			"pbrMetallicRoughness":{
				"baseColorFactor":[
					0.03582778200507164,
					0.03582778200507164,
					0.03582778200507164,
					1
				],
				"metallicFactor":0,
				"roughnessFactor":0.5
			}
		}
	],
	"meshes":[
		{
			"name":"example house 01",
			"primitives":[
				{
					"attributes":{
						"POSITION":0,
						"NORMAL":1,
						"TEXCOORD_0":2
					},
					"indices":3,
					"material":0
				},
				{
					"attributes":{
						"POSITION":4,
						"NORMAL":5,
						"TEXCOORD_0":6
					},
					"indices":7,
					"material":1
				},
				{
					"attributes":{
						"POSITION":8,
						"NORMAL":9,
						"TEXCOORD_0":10
					},
					"indices":11,
					"material":2
				},
				{
					"attributes":{
						"POSITION":12,
						"NORMAL":13,
						"TEXCOORD_0":14
					},
					"indices":15,
					"material":3
				},
				{
					"attributes":{
						"POSITION":16,
						"NORMAL":17,
						"TEXCOORD_0":18
					},
					"indices":19,
					"material":4
				},
				{
					"attributes":{
						"POSITION":20,
						"NORMAL":21,
						"TEXCOORD_0":22
					},
					"indices":23,
					"material":5
				},
				{
					"attributes":{
						"POSITION":24,
						"NORMAL":25,
						"TEXCOORD_0":26
					},
					"indices":27,
					"material":6
				},
				{
					"attributes":{
						"POSITION":28,
						"NORMAL":29,
						"TEXCOORD_0":30
					},
					"indices":31,
					"material":7
				}
			]
		}
	],
	"accessors":[
		{
			"bufferView":0,
			"componentType":5126,
			"count":9360,
			"max":[
				1174.805419921875,
				702.9177856445312,
				471.1347961425781
			],
			"min":[
				-90.77200317382812,
				-16.009899139404297,
				-1815.332275390625
			],
			"type":"VEC3"
		},
		{
			"bufferView":1,
			"componentType":5126,
			"count":9360,
			"type":"VEC3"
		},
		{
			"bufferView":2,
			"componentType":5126,
			"count":9360,
			"type":"VEC2"
		},
		{
			"bufferView":3,
			"componentType":5123,
			"count":21234,
			"type":"SCALAR"
		},
		{
			"bufferView":4,
			"componentType":5126,
			"count":1180,
			"max":[
				1153.2137451171875,
				694.6129760742188,
				71.72489929199219
			],
			"min":[
				-76.618896484375,
				297.702392578125,
				-1364.5047607421875
			],
			"type":"VEC3"
		},
		{
			"bufferView":5,
			"componentType":5126,
			"count":1180,
			"type":"VEC3"
		},
		{
			"bufferView":6,
			"componentType":5126,
			"count":1180,
			"type":"VEC2"
		},
		{
			"bufferView":7,
			"componentType":5123,
			"count":1842,
			"type":"SCALAR"
		},
		{
			"bufferView":8,
			"componentType":5126,
			"count":223,
			"max":[
				1171.368408203125,
				656.6406860351562,
				176.0352020263672
			],
			"min":[
				-28.61870002746582,
				-16.009899139404297,
				-1811.8951416015625
			],
			"type":"VEC3"
		},
		{
			"bufferView":9,
			"componentType":5126,
			"count":223,
			"type":"VEC3"
		},
		{
			"bufferView":10,
			"componentType":5126,
			"count":223,
			"type":"VEC2"
		},
		{
			"bufferView":11,
			"componentType":5123,
			"count":558,
			"type":"SCALAR"
		},
		{
			"bufferView":12,
			"componentType":5126,
			"count":216,
			"max":[
				1173.900390625,
				265.7401123046875,
				471.1347961425781
			],
			"min":[
				-88.33499908447266,
				-16.009899139404297,
				-1813.005859375
			],
			"type":"VEC3"
		},
		{
			"bufferView":13,
			"componentType":5126,
			"count":216,
			"type":"VEC3"
		},
		{
			"bufferView":14,
			"componentType":5126,
			"count":216,
			"type":"VEC2"
		},
		{
			"bufferView":15,
			"componentType":5123,
			"count":402,
			"type":"SCALAR"
		},
		{
			"bufferView":16,
			"componentType":5126,
			"count":84,
			"max":[
				554.6046752929688,
				702.9177856445312,
				-502.4928894042969
			],
			"min":[
				371.5820007324219,
				581.8410034179688,
				-581.9739990234375
			],
			"type":"VEC3"
		},
		{
			"bufferView":17,
			"componentType":5126,
			"count":84,
			"type":"VEC3"
		},
		{
			"bufferView":18,
			"componentType":5126,
			"count":84,
			"type":"VEC2"
		},
		{
			"bufferView":19,
			"componentType":5123,
			"count":150,
			"type":"SCALAR"
		},
		{
			"bufferView":20,
			"componentType":5126,
			"count":70,
			"max":[
				533.0377807617188,
				702.9177856445312,
				-524.1715087890625
			],
			"min":[
				392.6369934082031,
				600.1575927734375,
				-560.0054931640625
			],
			"type":"VEC3"
		},
		{
			"bufferView":21,
			"componentType":5126,
			"count":70,
			"type":"VEC3"
		},
		{
			"bufferView":22,
			"componentType":5126,
			"count":70,
			"type":"VEC2"
		},
		{
			"bufferView":23,
			"componentType":5123,
			"count":114,
			"type":"SCALAR"
		},
		{
			"bufferView":24,
			"componentType":5126,
			"count":96,
			"max":[
				1121.406494140625,
				326.5231018066406,
				61.594398498535156
			],
			"min":[
				-5.018799781799316,
				38.595401763916016,
				-1222.251220703125
			],
			"type":"VEC3"
		},
		{
			"bufferView":25,
			"componentType":5126,
			"count":96,
			"type":"VEC3"
		},
		{
			"bufferView":26,
			"componentType":5126,
			"count":96,
			"type":"VEC2"
		},
		{
			"bufferView":27,
			"componentType":5123,
			"count":144,
			"type":"SCALAR"
		},
		{
			"bufferView":28,
			"componentType":5126,
			"count":4,
			"max":[
				1765.997314453125,
				0,
				815.7764282226562
			],
			"min":[
				-685.3327026367188,
				0,
				-2296.263916015625
			],
			"type":"VEC3"
		},
		{
			"bufferView":29,
			"componentType":5126,
			"count":4,
			"type":"VEC3"
		},
		{
			"bufferView":30,
			"componentType":5126,
			"count":4,
			"type":"VEC2"
		},
		{
			"bufferView":31,
			"componentType":5123,
			"count":6,
			"type":"SCALAR"
		}
	],
	"bufferViews":[
		{
			"buffer":0,
			"byteLength":112320,
			"byteOffset":0,
			"target":34962
		},
		{
			"buffer":0,
			"byteLength":112320,
			"byteOffset":112320,
			"target":34962
		},
		{
			"buffer":0,
			"byteLength":74880,
			"byteOffset":224640,
			"target":34962
		},
		{
			"buffer":0,
			"byteLength":42468,
			"byteOffset":299520,
			"target":34963
		},
		{
			"buffer":0,
			"byteLength":14160,
			"byteOffset":341988,
			"target":34962
		},
		{
			"buffer":0,
			"byteLength":14160,
			"byteOffset":356148,
			"target":34962
		},
		{
			"buffer":0,
			"byteLength":9440,
			"byteOffset":370308,
			"target":34962
		},
		{
			"buffer":0,
			"byteLength":3684,
			"byteOffset":379748,
			"target":34963
		},
		{
			"buffer":0,
			"byteLength":2676,
			"byteOffset":383432,
			"target":34962
		},
		{
			"buffer":0,
			"byteLength":2676,
			"byteOffset":386108,
			"target":34962
		},
		{
			"buffer":0,
			"byteLength":1784,
			"byteOffset":388784,
			"target":34962
		},
		{
			"buffer":0,
			"byteLength":1116,
			"byteOffset":390568,
			"target":34963
		},
		{
			"buffer":0,
			"byteLength":2592,
			"byteOffset":391684,
			"target":34962
		},
		{
			"buffer":0,
			"byteLength":2592,
			"byteOffset":394276,
			"target":34962
		},
		{
			"buffer":0,
			"byteLength":1728,
			"byteOffset":396868,
			"target":34962
		},
		{
			"buffer":0,
			"byteLength":804,
			"byteOffset":398596,
			"target":34963
		},
		{
			"buffer":0,
			"byteLength":1008,
			"byteOffset":399400,
			"target":34962
		},
		{
			"buffer":0,
			"byteLength":1008,
			"byteOffset":400408,
			"target":34962
		},
		{
			"buffer":0,
			"byteLength":672,
			"byteOffset":401416,
			"target":34962
		},
		{
			"buffer":0,
			"byteLength":300,
			"byteOffset":402088,
			"target":34963
		},
		{
			"buffer":0,
			"byteLength":840,
			"byteOffset":402388,
			"target":34962
		},
		{
			"buffer":0,
			"byteLength":840,
			"byteOffset":403228,
			"target":34962
		},
		{
			"buffer":0,
			"byteLength":560,
			"byteOffset":404068,
			"target":34962
		},
		{
			"buffer":0,
			"byteLength":228,
			"byteOffset":404628,
			"target":34963
		},
		{
			"buffer":0,
			"byteLength":1152,
			"byteOffset":404856,
			"target":34962
		},
		{
			"buffer":0,
			"byteLength":1152,
			"byteOffset":406008,
			"target":34962
		},
		{
			"buffer":0,
			"byteLength":768,
			"byteOffset":407160,
			"target":34962
		},
		{
			"buffer":0,
			"byteLength":288,
			"byteOffset":407928,
			"target":34963
		},
		{
			"buffer":0,
			"byteLength":48,
			"byteOffset":408216,
			"target":34962
		},
		{
			"buffer":0,
			"byteLength":48,
			"byteOffset":408264,
			"target":34962
		},
		{
			"buffer":0,
			"byteLength":32,
			"byteOffset":408312,
			"target":34962
		},
		{
			"buffer":0,
			"byteLength":12,
			"byteOffset":408344,
			"target":34963
		}
	],
	"buffers":[
		{
			"byteLength":408356,
			"uri":"HouseLGType1.bin"
		}
	]
}
