{
	"asset":{
		"generator":"Khronos glTF Blender I/O v3.6.27",
		"version":"2.0"
	},
	"extensionsUsed":[
		"KHR_materials_transmission",
		"KHR_materials_specular",
		"KHR_materials_ior"
	],
	"scene":0,
	"scenes":[
		{
			"name":"Scene",
			"nodes":[
				0
			]
		}
	],
	"nodes":[
		{
			"mesh":0,
			"name":"6H1",
			"rotation":[
				0.7071068286895752,
				0,
				0,
				0.7071068286895752
			]
		}
	],
	"materials":[
		{
			"alphaMode":"BLEND",
			"doubleSided":true,
			"extensions":{
				"KHR_materials_transmission":{
					"transmissionFactor":1
				},
				"KHR_materials_specular":{
					"specularColorFactor":[
						1,
						1,
						1
					]
				},
				"KHR_materials_ior":{
					"ior":1
				}
			},
			"name":"lambert2SG",
			"pbrMetallicRoughness":{
				"baseColorFactor":[
					0.029999999329447746,
					0.07999999821186066,
					0.10999999940395355,
					1
				],
				"metallicFactor":0
			}
		},
		{
			"alphaMode":"BLEND",
			"doubleSided":true,
			"extensions":{
				"KHR_materials_transmission":{
					"transmissionFactor":1
				},
				"KHR_materials_specular":{
					"specularColorFactor":[
						1,
						1,
						1
					]
				},
				"KHR_materials_ior":{
					"ior":1
				}
			},
			"name":"lambert4SG",
			"pbrMetallicRoughness":{
				"baseColorFactor":[
					0.32796427607536316,
					0,
					0,
					1
				],
				"metallicFactor":0
			}
		},
		{
			"alphaMode":"BLEND",
			"doubleSided":true,
			"extensions":{
				"KHR_materials_transmission":{
					"transmissionFactor":1
				},
				"KHR_materials_specular":{
					"specularColorFactor":[
						1,
						1,
						1
					]
				},
				"KHR_materials_ior":{
					"ior":1
				}
			},
			"name":"lambert3SG",
			"pbrMetallicRoughness":{
				"metallicFactor":0
			}
		},
		{
			"alphaMode":"BLEND",
			"doubleSided":true,
			"extensions":{
				"KHR_materials_transmission":{
					"transmissionFactor":1
				},
				"KHR_materials_specular":{
					"specularColorFactor":[
						1,
						1,
						1
					]
				},
				"KHR_materials_ior":{
					"ior":1
				}
			},
			"name":"lambert9SG",
			"pbrMetallicRoughness":{
				"baseColorFactor":[
					0.11999999731779099,
					0.11999999731779099,
					0.11999999731779099,
					1
				],
				"metallicFactor":0
			}
		},
		{
			"alphaMode":"BLEND",
			"doubleSided":true,
			"extensions":{
				"KHR_materials_transmission":{
					"transmissionFactor":1
				},
				"KHR_materials_specular":{
					"specularColorFactor":[
						1,
						1,
						1
					]
				},
				"KHR_materials_ior":{
					"ior":1
				}
			},
			"name":"lambert5SG",
			"pbrMetallicRoughness":{
				"baseColorFactor":[
					0.09815354645252228,
					0.10167651623487473,
					0.09794194996356964,
					1
				],
				"metallicFactor":0
			}
		},
		{
			"alphaMode":"BLEND",
			"doubleSided":true,
			"extensions":{
				"KHR_materials_transmission":{
					"transmissionFactor":1
				},
				"KHR_materials_specular":{
					"specularColorFactor":[
						1,
						1,
						1
					]
				},
				"KHR_materials_ior":{
					"ior":1
				}
			},
			"name":"initialShadingGroup",
			"pbrMetallicRoughness":{
				"baseColorFactor":[
					0.5,
					0.5,
					0.5,
					1
				],
				"metallicFactor":0
			}
		},
		{
			"alphaMode":"BLEND",
			"doubleSided":true,
			"extensions":{
				"KHR_materials_transmission":{
					"transmissionFactor":1
				},
				"KHR_materials_specular":{
					"specularColorFactor":[
						1,
						1,
						1
					]
				},
				"KHR_materials_ior":{
					"ior":1
				}
			},
			"name":"lambert6SG",
			"pbrMetallicRoughness":{
				"metallicFactor":0
			}
		},
		{
			"alphaMode":"BLEND",
			"doubleSided":true,
			"extensions":{
				"KHR_materials_transmission":{
					"transmissionFactor":1
				},
				"KHR_materials_specular":{
					"specularColorFactor":[
						1,
						1,
						1
					]
				},
				"KHR_materials_ior":{
					"ior":1
				}
			},
			"name":"lambert7SG",
			"pbrMetallicRoughness":{
				"baseColorFactor":[
					0.28999999165534973,
					0.41999998688697815,
					1,
					1
				],
				"metallicFactor":0
			}
		}
	],
	"meshes":[
		{
			"name":"6H1",
			"primitives":[
				{
					"attributes":{
						"POSITION":0,
						"NORMAL":1,
						"TEXCOORD_0":2
					},
					"indices":3,
					"material":0
				},
				{
					"attributes":{
						"POSITION":4,
						"NORMAL":5,
						"TEXCOORD_0":6
					},
					"indices":7,
					"material":1
				},
				{
					"attributes":{
						"POSITION":8,
						"NORMAL":9,
						"TEXCOORD_0":10
					},
					"indices":11,
					"material":2
				},
				{
					"attributes":{
						"POSITION":12,
						"NORMAL":13,
						"TEXCOORD_0":14
					},
					"indices":15,
					"material":3
				},
				{
					"attributes":{
						"POSITION":16,
						"NORMAL":17,
						"TEXCOORD_0":18
					},
					"indices":19,
					"material":4
				},
				{
					"attributes":{
						"POSITION":20,
						"NORMAL":21,
						"TEXCOORD_0":22
					},
					"indices":23,
					"material":5
				},
				{
					"attributes":{
						"POSITION":24,
						"NORMAL":25,
						"TEXCOORD_0":26
					},
					"indices":27,
					"material":6
				},
				{
					"attributes":{
						"POSITION":28,
						"NORMAL":29,
						"TEXCOORD_0":30
					},
					"indices":31,
					"material":7
				}
			]
		}
	],
	"accessors":[
		{
			"bufferView":0,
			"componentType":5126,
			"count":546,
			"max":[
				91.35417175292969,
				88.95258331298828,
				1.0413659811019897
			],
			"min":[
				-41.0206184387207,
				-51.02061462402344,
				-112.14594268798828
			],
			"type":"VEC3"
		},
		{
			"bufferView":1,
			"componentType":5126,
			"count":546,
			"type":"VEC3"
		},
		{
			"bufferView":2,
			"componentType":5126,
			"count":546,
			"type":"VEC2"
		},
		{
			"bufferView":3,
			"componentType":5123,
			"count":1146,
			"type":"SCALAR"
		},
		{
			"bufferView":4,
			"componentType":5126,
			"count":44,
			"max":[
				96.07818603515625,
				55.0938720703125,
				-40.51030731201172
			],
			"min":[
				-45.496116638183594,
				-55.0938720703125,
				-114.71923828125
			],
			"type":"VEC3"
		},
		{
			"bufferView":5,
			"componentType":5126,
			"count":44,
			"type":"VEC3"
		},
		{
			"bufferView":6,
			"componentType":5126,
			"count":44,
			"type":"VEC2"
		},
		{
			"bufferView":7,
			"componentType":5123,
			"count":126,
			"type":"SCALAR"
		},
		{
			"bufferView":8,
			"componentType":5126,
			"count":1404,
			"max":[
				96.07818603515625,
				90.95256805419922,
				-2.1976590156555176
			],
			"min":[
				-45.496116638183594,
				-55.0938720703125,
				-114.71923828125
			],
			"type":"VEC3"
		},
		{
			"bufferView":9,
			"componentType":5126,
			"count":1404,
			"type":"VEC3"
		},
		{
			"bufferView":10,
			"componentType":5126,
			"count":1404,
			"type":"VEC2"
		},
		{
			"bufferView":11,
			"componentType":5123,
			"count":2376,
			"type":"SCALAR"
		},
		{
			"bufferView":12,
			"componentType":5126,
			"count":30,
			"max":[
				91.35417175292969,
				51.02061462402344,
				1.0413659811019897
			],
			"min":[
				-41.0206184387207,
				-51.02061462402344,
				-2.4677770137786865
			],
			"type":"VEC3"
		},
		{
			"bufferView":13,
			"componentType":5126,
			"count":30,
			"type":"VEC3"
		},
		{
			"bufferView":14,
			"componentType":5126,
			"count":30,
			"type":"VEC2"
		},
		{
			"bufferView":15,
			"componentType":5123,
			"count":48,
			"type":"SCALAR"
		},
		{
			"bufferView":16,
			"componentType":5126,
			"count":32,
			"max":[
				24.152851104736328,
				88.95258331298828,
				0.5712490081787109
			],
			"min":[
				-24.152851104736328,
				49.372718811035156,
				-43.18272018432617
			],
			"type":"VEC3"
		},
		{
			"bufferView":17,
			"componentType":5126,
			"count":32,
			"type":"VEC3"
		},
		{
			"bufferView":18,
			"componentType":5126,
			"count":32,
			"type":"VEC2"
		},
		{
			"bufferView":19,
			"componentType":5123,
			"count":48,
			"type":"SCALAR"
		},
		{
			"bufferView":20,
			"componentType":5126,
			"count":117,
			"max":[
				26.15285301208496,
				88.95258331298828,
				0.5712490081787109
			],
			"min":[
				-26.15285301208496,
				49.372718811035156,
				-43.18272018432617
			],
			"type":"VEC3"
		},
		{
			"bufferView":21,
			"componentType":5126,
			"count":117,
			"type":"VEC3"
		},
		{
			"bufferView":22,
			"componentType":5126,
			"count":117,
			"type":"VEC2"
		},
		{
			"bufferView":23,
			"componentType":5123,
			"count":216,
			"type":"SCALAR"
		},
		{
			"bufferView":24,
			"componentType":5126,
			"count":2171,
			"max":[
				91.9586410522461,
				51.49979782104492,
				-3.5356290340423584
			],
			"min":[
				-40.39472961425781,
				-51.241477966308594,
				-100.56343078613281
			],
			"type":"VEC3"
		},
		{
			"bufferView":25,
			"componentType":5126,
			"count":2171,
			"type":"VEC3"
		},
		{
			"bufferView":26,
			"componentType":5126,
			"count":2171,
			"type":"VEC2"
		},
		{
			"bufferView":27,
			"componentType":5123,
			"count":5436,
			"type":"SCALAR"
		},
		{
			"bufferView":28,
			"componentType":5126,
			"count":120,
			"max":[
				91.43869018554688,
				50.39339065551758,
				-4.303215980529785
			],
			"min":[
				-38.67088317871094,
				-50.13507080078125,
				-98.99014282226562
			],
			"type":"VEC3"
		},
		{
			"bufferView":29,
			"componentType":5126,
			"count":120,
			"type":"VEC3"
		},
		{
			"bufferView":30,
			"componentType":5126,
			"count":120,
			"type":"VEC2"
		},
		{
			"bufferView":31,
			"componentType":5123,
			"count":228,
			"type":"SCALAR"
		}
	],
	"bufferViews":[
		{
			"buffer":0,
			"byteLength":6552,
			"byteOffset":0,
			"target":34962
		},
		{
			"buffer":0,
			"byteLength":6552,
			"byteOffset":6552,
			"target":34962
		},
		{
			"buffer":0,
			"byteLength":4368,
			"byteOffset":13104,
			"target":34962
		},
		{
			"buffer":0,
			"byteLength":2292,
			"byteOffset":17472,
			"target":34963
		},
		{
			"buffer":0,
			"byteLength":528,
			"byteOffset":19764,
			"target":34962
		},
		{
			"buffer":0,
			"byteLength":528,
			"byteOffset":20292,
			"target":34962
		},
		{
			"buffer":0,
			"byteLength":352,
			"byteOffset":20820,
			"target":34962
		},
		{
			"buffer":0,
			"byteLength":252,
			"byteOffset":21172,
			"target":34963
		},
		{
			"buffer":0,
			"byteLength":16848,
			"byteOffset":21424,
			"target":34962
		},
		{
			"buffer":0,
			"byteLength":16848,
			"byteOffset":38272,
			"target":34962
		},
		{
			"buffer":0,
			"byteLength":11232,
			"byteOffset":55120,
			"target":34962
		},
		{
			"buffer":0,
			"byteLength":4752,
			"byteOffset":66352,
			"target":34963
		},
		{
			"buffer":0,
			"byteLength":360,
			"byteOffset":71104,
			"target":34962
		},
		{
			"buffer":0,
			"byteLength":360,
			"byteOffset":71464,
			"target":34962
		},
		{
			"buffer":0,
			"byteLength":240,
			"byteOffset":71824,
			"target":34962
		},
		{
			"buffer":0,
			"byteLength":96,
			"byteOffset":72064,
			"target":34963
		},
		{
			"buffer":0,
			"byteLength":384,
			"byteOffset":72160,
			"target":34962
		},
		{
			"buffer":0,
			"byteLength":384,
			"byteOffset":72544,
			"target":34962
		},
		{
			"buffer":0,
			"byteLength":256,
			"byteOffset":72928,
			"target":34962
		},
		{
			"buffer":0,
			"byteLength":96,
			"byteOffset":73184,
			"target":34963
		},
		{
			"buffer":0,
			"byteLength":1404,
			"byteOffset":73280,
			"target":34962
		},
		{
			"buffer":0,
			"byteLength":1404,
			"byteOffset":74684,
			"target":34962
		},
		{
			"buffer":0,
			"byteLength":936,
			"byteOffset":76088,
			"target":34962
		},
		{
			"buffer":0,
			"byteLength":432,
			"byteOffset":77024,
			"target":34963
		},
		{
			"buffer":0,
			"byteLength":26052,
			"byteOffset":77456,
			"target":34962
		},
		{
			"buffer":0,
			"byteLength":26052,
			"byteOffset":103508,
			"target":34962
		},
		{
			"buffer":0,
			"byteLength":17368,
			"byteOffset":129560,
			"target":34962
		},
		{
			"buffer":0,
			"byteLength":10872,
			"byteOffset":146928,
			"target":34963
		},
		{
			"buffer":0,
			"byteLength":1440,
			"byteOffset":157800,
			"target":34962
		},
		{
			"buffer":0,
			"byteLength":1440,
			"byteOffset":159240,
			"target":34962
		},
		{
			"buffer":0,
			"byteLength":960,
			"byteOffset":160680,
			"target":34962
		},
		{
			"buffer":0,
			"byteLength":456,
			"byteOffset":161640,
			"target":34963
		}
	],
	"buffers":[
		{
			"byteLength":162096,
			"uri":"HouseLG.bin"
		}
	]
}
